<svg width="20" height="24" viewBox="0 0 20 24" fill="none" xmlns="http://www.w3.org/2000/svg">
<path d="M10 0.333374C7.52467 0.333374 5.1507 1.3167 3.40036 3.06704C1.65002 4.81738 0.666687 7.19135 0.666687 9.66671C0.666687 15.9667 8.89169 23.0834 9.24169 23.3867C9.45301 23.5675 9.72194 23.6668 10 23.6668C10.2781 23.6668 10.547 23.5675 10.7584 23.3867C11.1667 23.0834 19.3334 15.9667 19.3334 9.66671C19.3334 7.19135 18.35 4.81738 16.5997 3.06704C14.8493 1.3167 12.4754 0.333374 10 0.333374V0.333374ZM10 20.925C7.51502 18.5917 3.00002 13.5634 3.00002 9.66671C3.00002 7.81019 3.73752 6.02971 5.05027 4.71696C6.36303 3.40421 8.14351 2.66671 10 2.66671C11.8565 2.66671 13.637 3.40421 14.9498 4.71696C16.2625 6.02971 17 7.81019 17 9.66671C17 13.5634 12.485 18.6034 10 20.925ZM10 5.00004C9.07704 5.00004 8.17479 5.27374 7.40736 5.78652C6.63993 6.2993 6.04179 7.02813 5.68858 7.88085C5.33537 8.73357 5.24296 9.67188 5.42302 10.5771C5.60309 11.4824 6.04754 12.3139 6.70019 12.9665C7.35283 13.6192 8.18435 14.0636 9.0896 14.2437C9.99484 14.4238 10.9332 14.3314 11.7859 13.9781C12.6386 13.6249 13.3674 13.0268 13.8802 12.2594C14.393 11.4919 14.6667 10.5897 14.6667 9.66671C14.6667 8.42903 14.175 7.24204 13.2999 6.36688C12.4247 5.49171 11.2377 5.00004 10 5.00004ZM10 12C9.53853 12 9.08741 11.8632 8.70369 11.6068C8.31998 11.3504 8.02091 10.986 7.8443 10.5596C7.6677 10.1333 7.62149 9.66412 7.71152 9.2115C7.80155 8.75887 8.02378 8.34311 8.35011 8.01679C8.67643 7.69047 9.09219 7.46824 9.54481 7.37821C9.99743 7.28818 10.4666 7.33438 10.8929 7.51099C11.3193 7.68759 11.6837 7.98666 11.9401 8.37038C12.1965 8.75409 12.3334 9.20522 12.3334 9.66671C12.3334 10.2855 12.0875 10.879 11.6499 11.3166C11.2124 11.7542 10.6189 12 10 12Z" fill="#303030"/>
</svg>
