<svg width="100" height="100" viewBox="0 0 100 100" fill="none" xmlns="http://www.w3.org/2000/svg">
<g filter="url(#filter0_d_33_442)">
<circle cx="50" cy="46" r="25" fill="url(#paint0_linear_33_442)"/>
<circle cx="50" cy="46" r="24.5" stroke="url(#paint1_linear_33_442)"/>
</g>
<path d="M37.9474 39.2105V36.5789C37.9474 35.881 38.2246 35.2116 38.7181 34.7181C39.2116 34.2246 39.881 33.9474 40.5789 33.9474H43.2105" stroke="white" stroke-width="2" stroke-linecap="round" stroke-linejoin="round"/>
<path d="M56.3684 33.9474H59C59.6979 33.9474 60.3673 34.2246 60.8608 34.7181C61.3543 35.2116 61.6316 35.881 61.6316 36.5789V39.2105" stroke="white" stroke-width="2" stroke-linecap="round" stroke-linejoin="round"/>
<path d="M61.6316 52.3684V55C61.6316 55.6979 61.3543 56.3673 60.8608 56.8608C60.3673 57.3543 59.6979 57.6316 59 57.6316H56.3684" stroke="white" stroke-width="2" stroke-linecap="round" stroke-linejoin="round"/>
<path d="M43.2105 57.6316H40.5789C39.881 57.6316 39.2116 57.3543 38.7181 56.8608C38.2246 56.3673 37.9474 55.6979 37.9474 55V52.3684" stroke="white" stroke-width="2" stroke-linecap="round" stroke-linejoin="round"/>
<path d="M43.2105 45.7895H56.3684" stroke="white" stroke-width="2" stroke-linecap="round" stroke-linejoin="round"/>
<defs>
<filter id="filter0_d_33_442" x="0" y="0" width="100" height="100" filterUnits="userSpaceOnUse" color-interpolation-filters="sRGB">
<feFlood flood-opacity="0" result="BackgroundImageFix"/>
<feColorMatrix in="SourceAlpha" type="matrix" values="0 0 0 0 0 0 0 0 0 0 0 0 0 0 0 0 0 0 127 0" result="hardAlpha"/>
<feOffset dy="4"/>
<feGaussianBlur stdDeviation="12.5"/>
<feComposite in2="hardAlpha" operator="out"/>
<feColorMatrix type="matrix" values="0 0 0 0 0.980392 0 0 0 0 0.666667 0 0 0 0 0.0784314 0 0 0 0.25 0"/>
<feBlend mode="normal" in2="BackgroundImageFix" result="effect1_dropShadow_33_442"/>
<feBlend mode="normal" in="SourceGraphic" in2="effect1_dropShadow_33_442" result="shape"/>
</filter>
<linearGradient id="paint0_linear_33_442" x1="28" y1="60" x2="72" y2="22.5" gradientUnits="userSpaceOnUse">
<stop stop-color="#FAAA14"/>
<stop offset="1" stop-color="#FFD78D"/>
</linearGradient>
<linearGradient id="paint1_linear_33_442" x1="28.5" y1="58" x2="73.5" y2="31" gradientUnits="userSpaceOnUse">
<stop stop-color="#EDA827"/>
<stop offset="1" stop-color="#FFDA96" stop-opacity="0"/>
</linearGradient>
</defs>
</svg>
