<svg width="24" height="46" viewBox="0 0 24 46" fill="none" xmlns="http://www.w3.org/2000/svg">
<path d="M3.368 33.568C3.344 33.712 3.32 33.984 3.312 34.184C3.28 34.72 3.248 35.792 3.248 36.584C3.248 37.432 3.288 38.744 3.288 39.224C3.288 40.072 2.984 40.32 2.504 40.32C1.816 40.32 0.752 39.688 0.752 38.912C0.752 38.176 1.72 37.408 2.768 37.024C3.48 36.752 4.28 36.616 4.904 36.616C6.104 36.616 7 37.248 7 38.272C7 39.232 6.44 39.888 5.264 40.176C4.904 40.256 4.552 40.272 4.248 40.288L3.96 39.48C4.288 39.48 4.632 39.48 4.92 39.424C5.6 39.296 6.184 38.944 6.184 38.272C6.184 37.648 5.624 37.304 4.896 37.304C4.2 37.304 3.52 37.456 2.864 37.72C2.112 38.008 1.536 38.496 1.536 38.88C1.536 39.192 2.016 39.464 2.28 39.464C2.448 39.464 2.56 39.368 2.56 39.096C2.56 38.656 2.512 37.544 2.512 36.616C2.512 35.704 2.536 34.536 2.536 34.192C2.536 34.032 2.512 33.704 2.488 33.568H3.368ZM5.768 34.448C6.352 34.744 7.248 35.28 7.656 35.592L7.264 36.24C6.872 35.888 5.912 35.312 5.408 35.056L5.768 34.448ZM0.92 34.944C1.376 35 1.688 35.008 1.976 35.008C2.784 35.008 4.04 34.848 4.848 34.608L4.872 35.392C4.008 35.592 2.712 35.752 2 35.752C1.512 35.752 1.208 35.744 0.936 35.712L0.92 34.944ZM12.776 33.392H13.552V40.096H12.776V33.392ZM10.552 35.736H15.736V36.472H10.552V35.736ZM10.76 39.624H15.6V40.36H10.76V39.624ZM9.416 35.504L10.152 34.76L10.16 34.776V40.656H9.416V35.504ZM10.288 33.264L11.016 33.496C10.448 34.896 9.544 36.312 8.608 37.216C8.528 37.04 8.304 36.64 8.16 36.464C9 35.696 9.808 34.488 10.288 33.264ZM19.584 33.248H20.352V39.896C20.352 40.312 20.24 40.48 19.968 40.592C19.688 40.688 19.264 40.696 18.592 40.696C18.552 40.52 18.432 40.248 18.336 40.088C18.768 40.104 19.248 40.096 19.384 40.096C19.536 40.088 19.584 40.04 19.584 39.896V33.248ZM16.512 33.84H23.496V34.448H16.512V33.84ZM18.064 35.36V35.848H21.928V35.36H18.064ZM17.344 34.856H22.704V36.352H17.344V34.856ZM17.128 36.824H22.832V39.832H22.064V37.36H17.128V36.824ZM16.344 37.824H23.664V38.408H16.344V37.824ZM17.056 38.912H22.472V39.48H17.056V38.912Z" fill="#303030"/>
<path d="M19 6H16V5C16 4.46957 15.7893 3.96086 15.4142 3.58579C15.0391 3.21071 14.5304 3 14 3H10C9.46957 3 8.96086 3.21071 8.58579 3.58579C8.21071 3.96086 8 4.46957 8 5V6H5C4.20435 6 3.44129 6.31607 2.87868 6.87868C2.31607 7.44129 2 8.20435 2 9V18C2 18.7956 2.31607 19.5587 2.87868 20.1213C3.44129 20.6839 4.20435 21 5 21H19C19.7956 21 20.5587 20.6839 21.1213 20.1213C21.6839 19.5587 22 18.7956 22 18V9C22 8.20435 21.6839 7.44129 21.1213 6.87868C20.5587 6.31607 19.7956 6 19 6ZM10 5H14V6H10V5ZM20 18C20 18.2652 19.8946 18.5196 19.7071 18.7071C19.5196 18.8946 19.2652 19 19 19H5C4.73478 19 4.48043 18.8946 4.29289 18.7071C4.10536 18.5196 4 18.2652 4 18V13H8V14C8 14.2652 8.10536 14.5196 8.29289 14.7071C8.48043 14.8946 8.73478 15 9 15C9.26522 15 9.51957 14.8946 9.70711 14.7071C9.89464 14.5196 10 14.2652 10 14V13H14V14C14 14.2652 14.1054 14.5196 14.2929 14.7071C14.4804 14.8946 14.7348 15 15 15C15.2652 15 15.5196 14.8946 15.7071 14.7071C15.8946 14.5196 16 14.2652 16 14V13H20V18ZM20 11H4V9C4 8.73478 4.10536 8.48043 4.29289 8.29289C4.48043 8.10536 4.73478 8 5 8H19C19.2652 8 19.5196 8.10536 19.7071 8.29289C19.8946 8.48043 20 8.73478 20 9V11Z" fill="#303030"/>
</svg>
