<svg width="32" height="46" viewBox="0 0 32 46" fill="none" xmlns="http://www.w3.org/2000/svg">
<path d="M12 11C11.8022 11 11.6089 11.0586 11.4444 11.1685C11.28 11.2784 11.1518 11.4346 11.0761 11.6173C11.0004 11.8 10.9806 12.0011 11.0192 12.1951C11.0578 12.3891 11.153 12.5673 11.2929 12.7071C11.4327 12.847 11.6109 12.9422 11.8049 12.9808C11.9989 13.0194 12.1999 12.9996 12.3827 12.9239C12.5654 12.8482 12.7216 12.72 12.8315 12.5556C12.9413 12.3911 13 12.1978 13 12C13 11.7348 12.8946 11.4804 12.7071 11.2929C12.5196 11.1054 12.2652 11 12 11ZM16 11C15.8022 11 15.6089 11.0586 15.4444 11.1685C15.28 11.2784 15.1518 11.4346 15.0761 11.6173C15.0004 11.8 14.9806 12.0011 15.0192 12.1951C15.0578 12.3891 15.153 12.5673 15.2929 12.7071C15.4327 12.847 15.6109 12.9422 15.8049 12.9808C15.9989 13.0194 16.1999 12.9996 16.3827 12.9239C16.5654 12.8482 16.7216 12.72 16.8315 12.5556C16.9413 12.3911 17 12.1978 17 12C17 11.7348 16.8946 11.4804 16.7071 11.2929C16.5196 11.1054 16.2652 11 16 11ZM20 11C19.8022 11 19.6089 11.0586 19.4444 11.1685C19.28 11.2784 19.1518 11.4346 19.0761 11.6173C19.0004 11.8 18.9806 12.0011 19.0192 12.1951C19.0578 12.3891 19.153 12.5673 19.2929 12.7071C19.4327 12.847 19.6109 12.9422 19.8049 12.9808C19.9989 13.0194 20.1999 12.9996 20.3827 12.9239C20.5654 12.8482 20.7216 12.72 20.8315 12.5556C20.9413 12.3911 21 12.1978 21 12C21 11.7348 20.8946 11.4804 20.7071 11.2929C20.5196 11.1054 20.2652 11 20 11ZM16 2C14.6868 2 13.3864 2.25866 12.1732 2.7612C10.9599 3.26375 9.85751 4.00035 8.92892 4.92893C7.05356 6.8043 5.99999 9.34784 5.99999 12C5.99125 14.3091 6.79078 16.5485 8.25999 18.33L6.25999 20.33C6.12123 20.4706 6.02723 20.6492 5.98986 20.8432C5.95249 21.0372 5.97341 21.2379 6.04999 21.42C6.13305 21.5999 6.26769 21.7511 6.43683 21.8544C6.60598 21.9577 6.80199 22.0083 6.99999 22H16C18.6522 22 21.1957 20.9464 23.0711 19.0711C24.9464 17.1957 26 14.6522 26 12C26 9.34784 24.9464 6.8043 23.0711 4.92893C21.1957 3.05357 18.6522 2 16 2ZM16 20H9.40999L10.34 19.07C10.5262 18.8826 10.6308 18.6292 10.6308 18.365C10.6308 18.1008 10.5262 17.8474 10.34 17.66C9.03057 16.352 8.21516 14.6305 8.03268 12.7888C7.8502 10.947 8.31193 9.09901 9.33922 7.55952C10.3665 6.02004 11.8958 4.88436 13.6665 4.34597C15.4372 3.80759 17.3398 3.8998 19.0502 4.60691C20.7606 5.31402 22.1728 6.59227 23.0464 8.22389C23.92 9.85551 24.2009 11.7395 23.8411 13.555C23.4814 15.3705 22.5033 17.005 21.0735 18.1802C19.6438 19.3554 17.8508 19.9985 16 20Z" fill="#303030"/>
<path d="M1.31906 34.36C1.92706 34.384 3.15106 34.36 4.02306 34.24C4.78306 34.136 5.67106 33.944 6.06306 33.768L6.59106 34.464C6.37506 34.52 6.19106 34.568 6.07106 34.6C5.59106 34.72 4.89506 34.848 4.26306 34.936C3.35906 35.056 2.22306 35.088 1.51906 35.104L1.31906 34.36ZM1.71906 39.84C3.10306 39.2 3.76706 38.176 3.76706 36.592C3.76706 36.592 3.76706 35.96 3.76706 34.848L4.58306 34.744C4.58306 35.4 4.58306 36.576 4.58306 36.576C4.58306 38.24 4.03906 39.496 2.51906 40.392L1.71906 39.84ZM0.703063 36.272C0.903063 36.288 1.17506 36.312 1.42306 36.312C1.93506 36.312 6.19906 36.312 6.71106 36.312C6.88706 36.312 7.21506 36.288 7.38306 36.272V37.096C7.19106 37.08 6.93506 37.064 6.72706 37.064C6.23906 37.064 1.91906 37.064 1.43906 37.064C1.18306 37.064 0.903063 37.08 0.703063 37.096V36.272ZM11.0889 35.024C11.1129 35.184 11.1609 35.376 11.2089 35.584C11.4329 36.376 12.2569 39.36 12.4329 39.96C12.4809 40.104 12.5689 40.4 12.6249 40.552L11.7689 40.776C11.7449 40.576 11.6969 40.344 11.6409 40.136C11.4569 39.512 10.6569 36.448 10.4409 35.752C10.3849 35.552 10.3129 35.376 10.2329 35.232L11.0889 35.024ZM14.9289 36.184C14.5929 36.872 13.7769 38.032 13.2249 38.592L12.5209 38.24C12.9849 37.84 13.5689 37.128 13.8169 36.688C13.4329 36.752 9.90494 37.48 9.29694 37.608L9.09694 36.848C9.33694 36.824 9.54494 36.8 9.79294 36.752C10.2089 36.688 13.5689 36.056 14.0729 35.936C14.1929 35.912 14.3289 35.872 14.4249 35.824L14.9289 36.184ZM19.8969 35.336C20.0409 35.664 20.4329 36.712 20.5369 37.072L19.7849 37.336C19.6969 36.96 19.3369 35.968 19.1529 35.584L19.8969 35.336ZM22.8169 35.84C22.7449 36.048 22.7049 36.192 22.6649 36.32C22.4569 37.168 22.1129 38.016 21.5529 38.728C20.8089 39.68 19.8249 40.32 18.9129 40.664L18.2489 39.992C19.1529 39.736 20.2169 39.128 20.8729 38.304C21.4329 37.616 21.8329 36.576 21.9449 35.56L22.8169 35.84ZM18.0409 35.744C18.2169 36.112 18.6249 37.128 18.7769 37.56L18.0089 37.848C17.8809 37.424 17.4649 36.336 17.2889 36.024L18.0409 35.744ZM26.5689 39.272C26.5689 38.752 26.5689 35.312 26.5689 34.64C26.5689 34.392 26.5529 34.016 26.5049 33.752H27.4889C27.4569 34.016 27.4249 34.36 27.4249 34.64C27.4249 35.728 27.4329 38.8 27.4329 39.272C27.4329 39.512 27.4569 40 27.4889 40.296H26.5049C26.5529 40.008 26.5689 39.576 26.5689 39.272ZM27.2409 35.84C28.3049 36.144 29.9689 36.76 30.8089 37.176L30.4569 38.04C29.5449 37.56 28.1129 37.016 27.2409 36.736V35.84Z" fill="#303030"/>
</svg>
