<svg width="40" height="46" viewBox="0 0 40 46" fill="none" xmlns="http://www.w3.org/2000/svg">
<path d="M23.71 12.71C24.6904 11.9387 25.406 10.8809 25.7572 9.68394C26.1085 8.48697 26.0779 7.21027 25.6698 6.03147C25.2617 4.85267 24.4963 3.83039 23.4801 3.10686C22.4639 2.38332 21.2474 1.99451 20 1.99451C18.7525 1.99451 17.5361 2.38332 16.5199 3.10686C15.5037 3.83039 14.7383 4.85267 14.3302 6.03147C13.9221 7.21027 13.8915 8.48697 14.2428 9.68394C14.594 10.8809 15.3096 11.9387 16.29 12.71C14.6101 13.383 13.1443 14.4994 12.0489 15.9399C10.9535 17.3805 10.2696 19.0913 10.07 20.89C10.0556 21.0213 10.0671 21.1542 10.104 21.2811C10.1409 21.4079 10.2025 21.5263 10.2851 21.6293C10.452 21.8375 10.6948 21.9708 10.96 22C11.2252 22.0292 11.4912 21.9518 11.6993 21.7849C11.9075 21.618 12.0408 21.3752 12.07 21.11C12.2896 19.1552 13.2217 17.3498 14.6882 16.0388C16.1547 14.7278 18.0529 14.003 20.02 14.003C21.9871 14.003 23.8852 14.7278 25.3518 16.0388C26.8183 17.3498 27.7504 19.1552 27.97 21.11C27.9972 21.3557 28.1144 21.5827 28.2991 21.747C28.4838 21.9114 28.7228 22.0015 28.97 22H29.08C29.3421 21.9698 29.5817 21.8373 29.7466 21.6313C29.9114 21.4252 29.9881 21.1624 29.96 20.9C29.7595 19.0962 29.0719 17.381 27.9708 15.9382C26.8698 14.4954 25.3969 13.3795 23.71 12.71ZM20 12C19.2089 12 18.4355 11.7654 17.7777 11.3259C17.1199 10.8864 16.6072 10.2616 16.3045 9.53074C16.0017 8.79983 15.9225 7.99557 16.0769 7.21964C16.2312 6.44372 16.6122 5.73099 17.1716 5.17158C17.731 4.61217 18.4437 4.2312 19.2196 4.07686C19.9956 3.92252 20.7998 4.00173 21.5307 4.30448C22.2616 4.60724 22.8863 5.11993 23.3259 5.77772C23.7654 6.43552 24 7.20888 24 8C24 9.06087 23.5786 10.0783 22.8284 10.8284C22.0783 11.5786 21.0609 12 20 12Z" fill="#303030"/>
<path d="M7.59013 34.944C7.49413 35.048 7.41413 35.144 7.35813 35.232C6.74213 36.232 5.60613 37.656 4.26213 38.632L3.63813 38.056C4.82213 37.232 5.79013 36.032 6.21413 35.28C5.50213 35.28 2.23813 35.28 1.71813 35.28C1.39813 35.28 1.01413 35.312 0.854125 35.328V34.44C1.07013 34.472 1.43813 34.504 1.71813 34.504C2.16613 34.504 5.51813 34.504 6.34213 34.504C6.59813 34.504 6.82213 34.48 6.95813 34.432L7.59013 34.944ZM3.62213 38.76C3.15013 38.28 2.27013 37.52 1.82213 37.2L2.48613 36.664C2.87813 36.96 3.75013 37.672 4.34213 38.24C4.85413 38.744 5.47813 39.408 5.83813 39.848L5.10213 40.432C4.79013 40.008 4.13413 39.28 3.62213 38.76ZM8.67813 37.016C10.0861 36.648 11.2861 36.104 12.1741 35.552C13.0061 35.032 13.8541 34.296 14.3901 33.64L15.0701 34.28C14.3661 35 13.4621 35.712 12.5261 36.288C11.6381 36.832 10.3501 37.424 9.07812 37.808L8.67813 37.016ZM12.0301 35.96L12.9101 35.728V39.36C12.9101 39.68 12.9261 40.12 12.9741 40.296H11.9741C12.0061 40.128 12.0301 39.68 12.0301 39.36V35.96ZM21.7741 35.16C21.7741 35.464 22.0221 35.712 22.3261 35.712C22.6301 35.712 22.8781 35.464 22.8781 35.16C22.8781 34.856 22.6301 34.608 22.3261 34.608C22.0221 34.608 21.7741 34.856 21.7741 35.16ZM21.3261 35.16C21.3261 34.608 21.7741 34.16 22.3261 34.16C22.8781 34.16 23.3261 34.608 23.3261 35.16C23.3261 35.712 22.8781 36.16 22.3261 36.16C21.7741 36.16 21.3261 35.712 21.3261 35.16ZM16.4381 37.824C16.6541 37.64 16.8141 37.48 17.0461 37.256C17.4141 36.88 18.0781 36.04 18.6061 35.416C19.0541 34.888 19.4701 34.8 20.0461 35.344C20.5581 35.824 21.2141 36.504 21.6861 37.016C22.2221 37.584 23.0301 38.464 23.6461 39.12L22.9501 39.864C22.3981 39.184 21.7021 38.36 21.2061 37.792C20.7421 37.256 20.0141 36.472 19.7021 36.152C19.4141 35.872 19.2541 35.896 18.9981 36.208C18.6461 36.648 18.0221 37.488 17.6781 37.928C17.5021 38.152 17.3261 38.416 17.1901 38.6L16.4381 37.824ZM24.8541 36.432C25.1181 36.456 25.6061 36.48 26.0461 36.48C26.7901 36.48 29.7421 36.48 30.3901 36.48C30.7821 36.48 31.0941 36.448 31.2861 36.432V37.424C31.1101 37.416 30.7421 37.384 30.3981 37.384C29.7421 37.384 26.7901 37.384 26.0461 37.384C25.5981 37.384 25.1261 37.4 24.8541 37.424V36.432ZM37.6979 33.96C37.9059 34.272 38.2499 34.824 38.4339 35.2L37.8739 35.448C37.6579 34.992 37.4259 34.568 37.1539 34.184L37.6979 33.96ZM38.7619 33.576C38.9939 33.872 39.3299 34.424 39.5219 34.784L38.9699 35.032C38.7379 34.576 38.4979 34.184 38.2179 33.808L38.7619 33.576ZM34.2499 33.824C34.7459 34.096 35.6499 34.688 36.0259 34.96L35.5539 35.656C35.1459 35.352 34.2899 34.792 33.7939 34.512L34.2499 33.824ZM32.9299 39.528C33.8099 39.376 34.7939 39.08 35.6259 38.608C36.9699 37.848 38.0499 36.784 38.6899 35.648L39.1779 36.496C38.4659 37.584 37.3459 38.608 36.0579 39.36C35.2499 39.824 34.1219 40.208 33.4019 40.352L32.9299 39.528ZM33.0339 35.632C33.5379 35.904 34.4499 36.472 34.8179 36.736L34.3619 37.44C33.9379 37.144 33.0899 36.592 32.5779 36.328L33.0339 35.632Z" fill="#303030"/>
</svg>
