<svg width="24" height="46" viewBox="0 0 24 46" fill="none" xmlns="http://www.w3.org/2000/svg">
<path d="M4.128 34.328C4.072 34.152 3.992 33.888 3.904 33.656L4.76 33.552C4.856 34.08 5.056 34.744 5.248 35.264C5.496 35.944 5.888 36.664 6.192 37.088C6.312 37.264 6.448 37.416 6.576 37.56L6.176 38.128C5.768 38.04 4.776 37.944 4.16 37.896L4.224 37.224C4.648 37.264 5.208 37.312 5.48 37.336C5.16 36.848 4.76 36.104 4.504 35.408C4.328 34.952 4.216 34.592 4.128 34.328ZM1.208 34.848C2.608 35.008 3.848 35.008 4.784 34.912C5.456 34.832 6.208 34.688 6.832 34.488L6.928 35.28C6.376 35.44 5.648 35.56 5.04 35.632C4 35.752 2.736 35.776 1.224 35.648L1.208 34.848ZM2.6 37.472C2.352 37.856 2.216 38.2 2.216 38.568C2.216 39.296 2.872 39.608 4.016 39.616C4.856 39.616 5.552 39.536 6.112 39.416L6.072 40.216C5.592 40.304 4.896 40.4 3.968 40.4C2.4 40.392 1.408 39.808 1.408 38.688C1.408 38.224 1.568 37.792 1.816 37.288L2.6 37.472ZM11.496 33.768C11.456 33.944 11.416 34.152 11.384 34.328C11.32 34.648 11.216 35.232 11.112 35.688C10.848 36.816 10.248 38.936 9.368 40.344L8.544 40.016C9.472 38.776 10.096 36.648 10.32 35.656C10.464 34.984 10.568 34.28 10.56 33.672L11.496 33.768ZM14.248 34.64C14.744 35.312 15.432 36.776 15.688 37.528L14.896 37.896C14.672 37.048 14.072 35.648 13.504 34.968L14.248 34.64ZM8.456 35.472C8.728 35.488 8.96 35.48 9.232 35.472C9.848 35.456 11.432 35.28 11.992 35.28C12.768 35.28 13.36 35.6 13.36 36.712C13.36 37.664 13.232 38.944 12.896 39.624C12.64 40.168 12.224 40.32 11.664 40.32C11.36 40.32 10.976 40.264 10.72 40.208L10.584 39.368C10.904 39.464 11.344 39.536 11.56 39.536C11.848 39.536 12.072 39.464 12.216 39.152C12.456 38.648 12.576 37.64 12.576 36.808C12.576 36.112 12.264 36 11.76 36C11.248 36 9.8 36.176 9.336 36.224C9.128 36.256 8.76 36.304 8.536 36.336L8.456 35.472ZM14.24 33.504C14.44 33.792 14.728 34.288 14.888 34.6L14.36 34.832C14.2 34.504 13.936 34.024 13.72 33.72L14.24 33.504ZM15.152 33.16C15.36 33.464 15.664 33.968 15.808 34.256L15.288 34.48C15.12 34.144 14.856 33.68 14.632 33.376L15.152 33.16ZM21.104 33.616C21.088 33.728 21.064 34.088 21.056 34.2C21.04 34.72 21.056 36.304 21.064 36.944L20.28 36.624C20.28 36.208 20.28 34.64 20.248 34.208C20.232 33.944 20.2 33.696 20.184 33.616H21.104ZM16.736 34.68C17.864 34.672 19.912 34.608 21.048 34.608C21.952 34.608 23.04 34.6 23.448 34.608L23.44 35.352C22.968 35.328 22.208 35.312 21.032 35.312C19.624 35.312 17.96 35.368 16.752 35.448L16.736 34.68ZM20.992 37.024C20.992 38.2 20.504 38.784 19.688 38.784C19.04 38.784 18.344 38.304 18.344 37.384C18.344 36.544 19.032 35.952 19.84 35.952C20.824 35.952 21.328 36.68 21.328 37.632C21.328 38.696 20.768 39.952 18.864 40.504L18.192 39.84C19.608 39.52 20.552 38.88 20.552 37.528C20.552 36.896 20.232 36.616 19.832 36.616C19.456 36.616 19.104 36.896 19.104 37.376C19.104 37.816 19.44 38.08 19.832 38.08C20.28 38.08 20.6 37.704 20.416 36.808L20.992 37.024Z" fill="#FAAA14"/>
<path d="M11 19C15.4183 19 19 15.4183 19 11C19 6.58172 15.4183 3 11 3C6.58172 3 3 6.58172 3 11C3 15.4183 6.58172 19 11 19Z" stroke="#303030" stroke-width="2" stroke-linecap="round" stroke-linejoin="round"/>
<path d="M21 21L16.65 16.65" stroke="#303030" stroke-width="2" stroke-linecap="round" stroke-linejoin="round"/>
</svg>
