<svg width="74" height="20" viewBox="0 0 74 20" fill="none" xmlns="http://www.w3.org/2000/svg">
<rect width="74" height="20" rx="2.43243" fill="#FF6262"/>
<path d="M17.58 7.5446H26.43V8.7646H17.58V7.5446ZM19.64 12.0846H24.28V13.3046H19.64V12.0846ZM21.35 5.6046H22.63V14.9946H21.35V5.6046ZM20.99 7.9846L22.09 8.3346C21.23 10.5146 19.81 12.4246 18.06 13.5246C17.86 13.2246 17.46 12.7646 17.19 12.5246C18.83 11.6246 20.28 9.8246 20.99 7.9846ZM22.99 8.0146C23.72 9.7946 25.18 11.5346 26.86 12.4046C26.56 12.6546 26.13 13.1546 25.93 13.4946C24.17 12.4146 22.77 10.5046 21.9 8.3746L22.99 8.0146ZM28.53 6.2046H35.51V14.8646H34.22V7.4146H29.77V14.8746H28.53V6.2046ZM29.38 9.5646H34.76V10.7546H29.38V9.5646ZM29.37 13.0146H34.76V14.2246H29.37V13.0146ZM42.97 6.0146C42.94 6.2146 42.91 6.4646 42.9 6.7246C42.88 7.2346 42.87 8.6546 42.87 9.4946C42.87 10.5946 43.03 12.4046 43.03 13.1946C43.03 14.0546 42.38 14.7146 41.07 14.7146C39.47 14.7146 38.63 14.1046 38.63 13.0446C38.63 12.0346 39.56 11.3246 41.09 11.3246C43.29 11.3246 44.93 12.4046 45.76 13.1046L45.04 14.2246C44.09 13.3246 42.64 12.3546 40.93 12.3546C40.23 12.3546 39.84 12.6246 39.84 12.9746C39.84 13.3546 40.19 13.5846 40.88 13.5846C41.41 13.5846 41.77 13.4346 41.77 12.8546C41.77 12.2546 41.66 10.4646 41.66 9.4946C41.66 8.5346 41.67 7.2646 41.67 6.6946C41.67 6.5146 41.65 6.2046 41.61 6.0146H42.97ZM38.82 6.9446C39.53 7.0646 40.68 7.1646 41.29 7.1646C42.65 7.1646 43.96 7.0946 45.42 6.8646L45.41 8.0046C44.39 8.1446 42.8 8.2646 41.3 8.2646C40.66 8.2646 39.5 8.1746 38.84 8.0946L38.82 6.9446ZM38.76 9.1046C39.42 9.2246 40.64 9.2946 41.17 9.2946C43.02 9.2946 44.31 9.1746 45.54 9.0146L45.53 10.1946C44.15 10.3546 43.06 10.4146 41.16 10.4146C40.57 10.4146 39.44 10.3646 38.78 10.2846L38.76 9.1046ZM47.69 7.2446C48.08 7.2346 48.48 7.2146 48.67 7.1946C49.5 7.1146 51.15 6.9746 52.98 6.8146C54.02 6.7346 55.11 6.6646 55.82 6.6346L55.83 7.9246C55.29 7.9246 54.43 7.9346 53.89 8.0546C52.69 8.3746 51.78 9.6746 51.78 10.8646C51.78 12.5046 53.32 13.1046 55.01 13.1846L54.54 14.5546C52.45 14.4246 50.47 13.2946 50.47 11.1246C50.47 9.6946 51.28 8.5546 51.95 8.0446C51.02 8.1446 48.97 8.3646 47.82 8.6146L47.69 7.2446ZM54.4 8.9046C54.64 9.2546 55 9.8646 55.19 10.2646L54.44 10.5946C54.18 10.0546 53.97 9.6546 53.66 9.2146L54.4 8.9046ZM55.51 8.4446C55.77 8.7946 56.15 9.3846 56.36 9.7746L55.61 10.1346C55.34 9.5946 55.11 9.2146 54.79 8.7746L55.51 8.4446Z" fill="white"/>
</svg>
