<svg width="26" height="24" viewBox="0 0 26 24" fill="none" xmlns="http://www.w3.org/2000/svg">
<path d="M23.2 3.25001C21.8749 1.92152 20.1185 1.11068 18.2479 0.963971C16.3773 0.817258 14.5159 1.34434 13 2.45001C11.4095 1.26706 9.42997 0.730647 7.45988 0.948805C5.48979 1.16696 3.67553 2.12348 2.38244 3.62574C1.08936 5.128 0.413506 7.06441 0.49098 9.04503C0.568453 11.0256 1.3935 12.9033 2.79998 14.3L10.5625 22.075C11.2125 22.7147 12.088 23.0733 13 23.0733C13.912 23.0733 14.7875 22.7147 15.4375 22.075L23.2 14.3C24.6595 12.8316 25.4786 10.8453 25.4786 8.77501C25.4786 6.70467 24.6595 4.71842 23.2 3.25001V3.25001ZM21.4375 12.575L13.675 20.3375C13.5866 20.4267 13.4815 20.4975 13.3657 20.5458C13.2498 20.5941 13.1255 20.619 13 20.619C12.8744 20.619 12.7502 20.5941 12.6343 20.5458C12.5184 20.4975 12.4133 20.4267 12.325 20.3375L4.56248 12.5375C3.58218 11.5354 3.03324 10.1893 3.03324 8.78751C3.03324 7.38568 3.58218 6.03958 4.56248 5.03751C5.56142 4.05124 6.90869 3.49822 8.31248 3.49822C9.71626 3.49822 11.0635 4.05124 12.0625 5.03751C12.1787 5.15467 12.3169 5.24766 12.4693 5.31112C12.6216 5.37458 12.785 5.40726 12.95 5.40726C13.115 5.40726 13.2784 5.37458 13.4307 5.31112C13.583 5.24766 13.7213 5.15467 13.8375 5.03751C14.8364 4.05124 16.1837 3.49822 17.5875 3.49822C18.9913 3.49822 20.3385 4.05124 21.3375 5.03751C22.3313 6.02645 22.8982 7.36525 22.9169 8.76711C22.9356 10.169 22.4045 11.5224 21.4375 12.5375V12.575Z" fill="#303030" fill-opacity="0.15"/>
</svg>
