<svg width="29" height="29" viewBox="0 0 29 29" fill="none" xmlns="http://www.w3.org/2000/svg">
<path d="M14.4375 26.4688C15.7609 26.4688 16.8437 25.3859 16.8437 24.0625H12.0312C12.0312 25.3859 13.1141 26.4688 14.4375 26.4688ZM21.6562 19.25V13.2344C21.6562 9.54078 19.6952 6.44875 16.2422 5.63063V4.8125C16.2422 3.81391 15.4361 3.00781 14.4375 3.00781C13.4389 3.00781 12.6328 3.81391 12.6328 4.8125V5.63063C9.19187 6.44875 7.21875 9.52875 7.21875 13.2344V19.25L4.8125 21.6563V22.8594H24.0625V21.6563L21.6562 19.25ZM19.25 20.4531H9.625V13.2344C9.625 10.2506 11.4417 7.82031 14.4375 7.82031C17.4333 7.82031 19.25 10.2506 19.25 13.2344V20.4531Z" fill="#4B4948"/>
</svg>
