<svg width="61" height="43" viewBox="0 0 61 43" fill="none" xmlns="http://www.w3.org/2000/svg">
<path d="M0.864 30.484V33.244H1.992V31.54H9.972V33.244H11.16V30.484H0.864ZM3.816 32.848V33.832H9.24V32.848H3.816ZM3.456 35.092V36.088H8.424V35.092H3.456ZM0.624 37.312V38.356H11.4V37.312H0.624ZM8.124 35.092V35.272C7.884 38.224 7.608 39.52 7.224 39.856C7.068 39.976 6.912 40 6.648 40C6.336 40 5.52 39.988 4.704 39.916C4.908 40.216 5.064 40.672 5.088 40.984C5.868 41.032 6.636 41.032 7.056 41.008C7.548 40.972 7.86 40.876 8.172 40.552C8.664 40.072 8.952 38.776 9.216 35.584C9.24 35.428 9.264 35.092 9.264 35.092H8.124ZM3.516 31.564C3.264 33.1 2.832 35.14 2.484 36.376L3.636 36.472C3.948 35.26 4.38 33.244 4.656 31.672L3.516 31.564ZM18.984 39.58C20.316 40.048 21.672 40.624 22.488 41.032L23.448 40.276C22.548 39.868 21.06 39.304 19.728 38.86L18.984 39.58ZM12.66 37.84V38.788H23.34V37.84H12.66ZM13.008 30.82V31.78H23.064V30.82H13.008ZM17.376 29.86V32.848H18.564V29.86H17.376ZM15.54 34.504H20.616V35.176H15.54V34.504ZM15.54 35.848H20.616V36.544H15.54V35.848ZM15.54 33.16H20.616V33.82H15.54V33.16ZM14.448 32.44V37.24H21.768V32.44H14.448ZM16.08 38.896C15.324 39.388 13.836 39.952 12.636 40.252C12.876 40.468 13.224 40.816 13.404 41.032C14.592 40.732 16.104 40.132 17.052 39.556L16.08 38.896ZM29.652 30.46L28.404 30.352C28.368 30.94 28.212 31.66 27.96 32.32C27.516 33.472 26.664 34.816 25.008 36.376L26.028 37.132C26.436 36.628 26.772 36.196 27.132 35.848C27.636 35.38 28.392 34.996 29.112 34.996C29.688 34.996 30.168 35.284 30.168 36.016C30.18 36.64 30.168 37.792 30.12 38.392H31.272C31.26 37.648 31.224 36.292 31.224 35.668C31.224 34.624 30.492 34.06 29.532 34.06C29.064 34.06 28.392 34.192 27.996 34.408C28.404 33.844 28.812 33.088 29.088 32.428C29.412 31.588 29.556 30.916 29.652 30.46ZM25.368 31.672V32.788C26.028 32.836 26.856 32.86 27.36 32.86C28.86 32.86 31.176 32.764 32.856 32.512L32.868 31.408C31.152 31.708 29.028 31.804 27.432 31.804C26.856 31.804 25.992 31.756 25.368 31.672ZM34.68 34.792L34.2 33.676C33.816 33.88 33.468 34.036 33.06 34.216C32.292 34.564 31.416 34.9 30.3 35.488C28.86 36.22 27.276 37.156 27.276 38.704C27.276 40.204 28.656 40.612 30.444 40.612C31.524 40.612 32.916 40.516 33.78 40.408L33.816 39.184C32.76 39.376 31.452 39.496 30.48 39.496C29.268 39.496 28.5 39.34 28.5 38.524C28.5 37.768 29.232 37.18 30.372 36.58C31.524 35.992 32.64 35.548 33.456 35.224C33.816 35.092 34.344 34.888 34.68 34.792ZM39.216 34.588H36.552V35.644H38.112V38.908H39.216V34.588ZM39.216 38.416H38.184C37.596 38.896 36.912 39.376 36.348 39.736L36.924 40.912C37.572 40.384 38.16 39.892 38.712 39.4C39.492 40.336 40.536 40.732 42.06 40.792C43.44 40.84 45.888 40.816 47.268 40.756C47.316 40.42 47.508 39.868 47.628 39.604C46.128 39.712 43.416 39.748 42.072 39.688C40.74 39.64 39.744 39.256 39.216 38.416ZM36.636 30.844C37.392 31.384 38.268 32.188 38.64 32.764L39.54 32.008C39.12 31.432 38.232 30.664 37.476 30.16L36.636 30.844ZM41.004 31.096V32.032H45.192V33.4H41.004V34.348H46.296V31.096H41.004ZM42.792 29.848C42.696 30.328 42.492 31 42.312 31.468L43.38 31.684C43.584 31.264 43.86 30.652 44.112 30.028L42.792 29.848ZM40.452 31.096V38.836H41.556V31.096H40.452ZM41.076 35.344V36.292H45.66V37.876H41.076V38.836H46.776V35.344H41.076ZM55.296 38.848V39.94H58.476V38.848H55.296ZM48.612 32.092V33.208H53.136V32.092H48.612ZM54.792 31.312V40.804H55.884V32.416H57.864V40.72H59.004V31.312H54.792ZM52.848 32.092V32.356C52.752 37.372 52.656 39.124 52.392 39.484C52.284 39.652 52.164 39.7 51.984 39.688C51.768 39.688 51.288 39.688 50.76 39.64C50.952 39.964 51.072 40.456 51.084 40.78C51.636 40.816 52.176 40.816 52.524 40.756C52.896 40.696 53.136 40.576 53.376 40.228C53.76 39.688 53.844 37.888 53.94 32.644C53.94 32.488 53.94 32.092 53.94 32.092H52.848ZM50.196 30.04C50.184 34.324 50.232 38.104 48.288 40.216C48.576 40.384 48.96 40.756 49.14 41.02C51.24 38.692 51.3 34.6 51.312 30.04H50.196Z" fill="#9C9896"/>
<path d="M22.8653 14.8853L23.7045 15.592L22.8653 14.8853V14.8853ZM27.343 14.8853L26.5038 15.592L27.343 14.8853ZM27.6153 15.1147L28.4545 14.408L27.6153 15.1147ZM32.093 15.1147L31.2538 14.408L32.093 15.1147ZM35.532 12.2187L34.6928 11.512L35.532 12.2187ZM40.0097 12.2187L40.8488 11.512L40.0097 12.2187ZM18.7708 2H40.9375V0H18.7708V2ZM41.3333 2.33333V21H43.7083V2.33333H41.3333ZM40.9375 21.3333H18.7708V23.3333H40.9375V21.3333ZM18.375 21V2.33333H16V21H18.375ZM18.7708 21.3333C18.6659 21.3333 18.5652 21.2982 18.4909 21.2357C18.4167 21.1732 18.375 21.0884 18.375 21H16C16 22.288 17.2413 23.3333 18.7708 23.3333V21.3333ZM41.3333 21C41.3333 21.0884 41.2916 21.1732 41.2174 21.2357C41.1432 21.2982 41.0425 21.3333 40.9375 21.3333V23.3333C41.6724 23.3333 42.3771 23.0875 42.8968 22.6499C43.4164 22.2123 43.7083 21.6188 43.7083 21H41.3333ZM40.9375 2C41.0425 2 41.1432 2.03512 41.2174 2.09763C41.2916 2.16014 41.3333 2.24493 41.3333 2.33333H43.7083C43.7083 1.71449 43.4164 1.121 42.8968 0.683418C42.3771 0.245833 41.6724 0 40.9375 0V2ZM18.7708 0C18.036 0 17.3312 0.245833 16.8116 0.683418C16.2919 1.121 16 1.71449 16 2.33333H18.375C18.375 2.24493 18.4167 2.16014 18.4909 2.09763C18.5652 2.03512 18.6659 2 18.7708 2V0ZM18.0267 20.3733L23.7045 15.592L22.0262 14.1787L16.3483 18.96L18.0267 20.3733V20.3733ZM26.5038 15.592L26.7746 15.8213L28.4545 14.408L28.1837 14.1787L26.5038 15.592ZM32.9322 15.8213L36.3712 12.9267L34.6928 11.512L31.2538 14.4067L32.9322 15.8213ZM39.1705 12.9267L41.6817 15.04L43.36 13.6267L40.8504 11.512L39.1705 12.9253V12.9267ZM36.3712 12.9267C36.555 12.7719 36.7732 12.6491 37.0133 12.5653C37.2535 12.4815 37.5109 12.4384 37.7708 12.4384C38.0308 12.4384 38.2882 12.4815 38.5283 12.5653C38.7685 12.6491 38.9867 12.7719 39.1705 12.9267L40.8488 11.512C40.0323 10.8248 38.9252 10.4388 37.7708 10.4388C36.6165 10.4388 35.5093 10.8248 34.6928 11.512L36.3712 12.9253V12.9267ZM26.7762 15.8213C27.5927 16.5089 28.7002 16.8952 29.855 16.8952C31.0097 16.8952 32.1172 16.5089 32.9337 15.8213L31.2538 14.408C31.07 14.5628 30.8518 14.6856 30.6117 14.7694C30.3715 14.8532 30.1141 14.8963 29.8542 14.8963C29.5942 14.8963 29.3368 14.8532 29.0966 14.7694C28.8565 14.6856 28.6383 14.5628 28.4545 14.408L26.7762 15.8213V15.8213ZM23.7045 15.5933C23.8883 15.4385 24.1065 15.3157 24.3467 15.2319C24.5868 15.1481 24.8442 15.105 25.1042 15.105C25.3641 15.105 25.6215 15.1481 25.8617 15.2319C26.1018 15.3157 26.32 15.4385 26.5038 15.5933L28.1822 14.1787C27.3656 13.4911 26.2581 13.1048 25.1034 13.1048C23.9486 13.1048 22.8411 13.4911 22.0246 14.1787L23.7045 15.592V15.5933ZM26.5941 7.46133C26.5941 8.268 25.8167 8.92267 24.8587 8.92267V10.9227C25.9487 10.9223 26.994 10.5575 27.7647 9.90848C28.5355 9.25943 28.9687 8.37923 28.9691 7.46133H26.5941ZM24.8587 8.92267C23.9024 8.92267 23.125 8.26933 23.125 7.46133H20.75C20.75 8.3791 21.1828 9.25931 21.9533 9.90839C22.7238 10.5575 23.7689 10.9223 24.8587 10.9227V8.92267ZM23.125 7.46133C23.125 6.65467 23.9024 6 24.8587 6V4C23.7689 4.00035 22.7238 4.36518 21.9533 5.01427C21.1828 5.66336 20.75 6.54356 20.75 7.46133H23.125ZM24.8587 6C25.8167 6 26.5941 6.65467 26.5941 7.46133H28.9691C28.9687 6.54344 28.5355 5.66324 27.7647 5.01419C26.994 4.36514 25.9487 4.00035 24.8587 4V6Z" fill="#9C9896"/>
</svg>
