<svg width="40" height="40" viewBox="0 0 40 40" fill="none" xmlns="http://www.w3.org/2000/svg">
<rect x="40" y="40" width="40" height="40" rx="20" transform="rotate(-180 40 40)" fill="#949EFF"/>
<path d="M21.2143 25.5833L16.9286 20.5833C16.7857 20.4167 16.7143 20.25 16.7143 20C16.7143 19.75 16.7857 19.5833 16.9286 19.4167L21.2143 14.4167C21.5 14.0833 21.9286 14.0833 22.2143 14.4167C22.5 14.75 22.5 15.25 22.2143 15.5833L18.4286 20L22.2143 24.4167C22.5 24.75 22.5 25.25 22.2143 25.5833C21.9286 25.9167 21.5 25.9167 21.2143 25.5833Z" fill="black"/>
<mask id="mask0_35_460" style="mask-type:luminance" maskUnits="userSpaceOnUse" x="16" y="14" width="7" height="12">
<path d="M21.2143 25.5833L16.9286 20.5833C16.7857 20.4167 16.7143 20.25 16.7143 20C16.7143 19.75 16.7857 19.5833 16.9286 19.4167L21.2143 14.4167C21.5 14.0833 21.9286 14.0833 22.2143 14.4167C22.5 14.75 22.5 15.25 22.2143 15.5833L18.4286 20L22.2143 24.4167C22.5 24.75 22.5 25.25 22.2143 25.5833C21.9286 25.9167 21.5 25.9167 21.2143 25.5833Z" fill="white"/>
</mask>
<g mask="url(#mask0_35_460)">
<rect x="28.1429" y="10" width="20" height="17.1429" transform="rotate(90 28.1429 10)" fill="white"/>
</g>
</svg>
