<svg width="347" height="229" viewBox="0 0 347 229" fill="none" xmlns="http://www.w3.org/2000/svg">
<g filter="url(#filter0_d_39_592)">
<rect x="15" y="11" width="317" height="199" rx="14" fill="white"/>
</g>
<path d="M112.531 37.9202C113.977 36.7915 116.006 36.7915 117.452 37.9202L120.844 40.5669C121.415 41.0124 122.096 41.2945 122.815 41.3832L127.085 41.9101C128.906 42.1348 130.34 43.5693 130.565 45.3901L131.092 49.66C131.18 50.3788 131.463 51.06 131.908 51.6309L134.555 55.0227C135.684 56.4691 135.684 58.4979 134.555 59.9442L131.908 63.3361C131.463 63.907 131.18 64.5882 131.092 65.3069L130.565 69.5768C130.34 71.3976 128.906 72.8322 127.085 73.0569L122.815 73.5837C122.096 73.6724 121.415 73.9546 120.844 74.4001L117.452 77.0468C116.006 78.1754 113.977 78.1754 112.531 77.0468L109.139 74.4001C108.568 73.9546 107.887 73.6724 107.168 73.5837L102.898 73.0569C101.077 72.8322 99.6429 71.3976 99.4182 69.5768L98.8913 65.3069C98.8026 64.5882 98.5204 63.907 98.0749 63.3361L95.4282 59.9442C94.2996 58.4979 94.2996 56.4691 95.4282 55.0227L98.0749 51.6309C98.5204 51.06 98.8026 50.3788 98.8913 49.66L99.4182 45.3901C99.6429 43.5693 101.077 42.1348 102.898 41.9101L107.168 41.3832C107.887 41.2945 108.568 41.0124 109.139 40.5669L112.531 37.9202Z" fill="url(#paint0_linear_39_592)"/>
<path d="M171.038 37.9203C172.485 36.7917 174.513 36.7917 175.96 37.9203L179.352 40.567C179.923 41.0125 180.604 41.2947 181.323 41.3834L185.592 41.9102C187.413 42.1349 188.848 43.5695 189.072 45.3903L189.599 49.6601C189.688 50.3789 189.97 51.0601 190.416 51.631L193.062 55.0229C194.191 56.4692 194.191 58.498 193.062 59.9444L190.416 63.3362C189.97 63.9071 189.688 64.5883 189.599 65.3071L189.072 69.577C188.848 71.3978 187.413 72.8323 185.592 73.057L181.323 73.5839C180.604 73.6726 179.923 73.9547 179.352 74.4002L175.96 77.0469C174.513 78.1756 172.485 78.1756 171.038 77.0469L167.646 74.4002C167.076 73.9547 166.394 73.6726 165.676 73.5839L161.406 73.057C159.585 72.8323 158.15 71.3978 157.926 69.577L157.399 65.3071C157.31 64.5883 157.028 63.9071 156.582 63.3362L153.936 59.9444C152.807 58.498 152.807 56.4692 153.936 55.0229L156.582 51.631C157.028 51.0601 157.31 50.3789 157.399 49.6601L157.926 45.3903C158.15 43.5695 159.585 42.1349 161.406 41.9102L165.676 41.3834C166.394 41.2947 167.076 41.0125 167.646 40.567L171.038 37.9203Z" fill="url(#paint1_linear_39_592)"/>
<path d="M229.547 37.9202C230.994 36.7915 233.023 36.7915 234.469 37.9202L237.861 40.5669C238.432 41.0124 239.113 41.2945 239.832 41.3832L244.101 41.9101C245.922 42.1348 247.357 43.5693 247.582 45.3901L248.108 49.66C248.197 50.3788 248.479 51.06 248.925 51.6309L251.571 55.0227C252.7 56.4691 252.7 58.4979 251.571 59.9442L248.925 63.3361C248.479 63.907 248.197 64.5882 248.108 65.3069L247.582 69.5768C247.357 71.3976 245.922 72.8322 244.101 73.0569L239.832 73.5837C239.113 73.6724 238.432 73.9546 237.861 74.4001L234.469 77.0468C233.023 78.1754 230.994 78.1754 229.547 77.0468L226.156 74.4001C225.585 73.9546 224.903 73.6724 224.185 73.5837L219.915 73.0569C218.094 72.8322 216.659 71.3976 216.435 69.5768L215.908 65.3069C215.819 64.5882 215.537 63.907 215.092 63.3361L212.445 59.9442C211.316 58.4979 211.316 56.4691 212.445 55.0227L215.092 51.6309C215.537 51.06 215.819 50.3788 215.908 49.66L216.435 45.3901C216.659 43.5693 218.094 42.1348 219.915 41.9101L224.185 41.3832C224.903 41.2945 225.585 41.0124 226.156 40.5669L229.547 37.9202Z" fill="url(#paint2_linear_39_592)"/>
<path d="M288.055 37.9203C289.502 36.7917 291.531 36.7917 292.977 37.9203L296.369 40.567C296.94 41.0125 297.621 41.2947 298.34 41.3834L302.61 41.9102C304.43 42.1349 305.865 43.5695 306.09 45.3903L306.616 49.6601C306.705 50.3789 306.987 51.0601 307.433 51.631L310.079 55.0229C311.208 56.4692 311.208 58.498 310.079 59.9444L307.433 63.3362C306.987 63.9071 306.705 64.5883 306.616 65.3071L306.09 69.577C305.865 71.3978 304.43 72.8323 302.61 73.057L298.34 73.5839C297.621 73.6726 296.94 73.9547 296.369 74.4002L292.977 77.0469C291.531 78.1756 289.502 78.1756 288.055 77.0469L284.664 74.4002C284.093 73.9547 283.411 73.6726 282.693 73.5839L278.423 73.057C276.602 72.8323 275.167 71.3978 274.943 69.577L274.416 65.3071C274.327 64.5883 274.045 63.9071 273.6 63.3362L270.953 59.9444C269.824 58.498 269.824 56.4692 270.953 55.0229L273.6 51.631C274.045 51.0601 274.327 50.3789 274.416 49.6601L274.943 45.3903C275.167 43.5695 276.602 42.1349 278.423 41.9102L282.693 41.3834C283.411 41.2947 284.093 41.0125 284.664 40.567L288.055 37.9203Z" fill="url(#paint3_linear_39_592)"/>
<path d="M54.0225 91.8572C55.4689 90.7285 57.4976 90.7285 58.944 91.8572L62.3358 94.5039C62.9068 94.9494 63.588 95.2316 64.3067 95.3202L68.5766 95.8471C70.3974 96.0718 71.8319 97.5063 72.0566 99.3272L72.5835 103.597C72.6722 104.316 72.9543 104.997 73.3999 105.568L76.0466 108.96C77.1752 110.406 77.1752 112.435 76.0466 113.881L73.3999 117.273C72.9543 117.844 72.6722 118.525 72.5835 119.244L72.0566 123.514C71.8319 125.335 70.3974 126.769 68.5766 126.994L64.3067 127.521C63.588 127.609 62.9068 127.892 62.3358 128.337L58.944 130.984C57.4976 132.112 55.4689 132.112 54.0225 130.984L50.6307 128.337C50.0597 127.892 49.3785 127.609 48.6598 127.521L44.3899 126.994C42.5691 126.769 41.1346 125.335 40.9099 123.514L40.383 119.244C40.2943 118.525 40.0121 117.844 39.5666 117.273L36.9199 113.881C35.7913 112.435 35.7913 110.406 36.9199 108.96L39.5666 105.568C40.0121 104.997 40.2943 104.316 40.383 103.597L40.9099 99.3272C41.1346 97.5063 42.5691 96.0718 44.3899 95.8471L48.6598 95.3202C49.3785 95.2316 50.0597 94.9494 50.6307 94.5039L54.0225 91.8572Z" fill="url(#paint4_linear_39_592)"/>
<path d="M112.531 91.8572C113.977 90.7285 116.006 90.7285 117.452 91.8572L120.844 94.5039C121.415 94.9494 122.096 95.2316 122.815 95.3202L127.085 95.8471C128.906 96.0718 130.34 97.5063 130.565 99.3272L131.092 103.597C131.18 104.316 131.463 104.997 131.908 105.568L134.555 108.96C135.684 110.406 135.684 112.435 134.555 113.881L131.908 117.273C131.463 117.844 131.18 118.525 131.092 119.244L130.565 123.514C130.34 125.335 128.906 126.769 127.085 126.994L122.815 127.521C122.096 127.609 121.415 127.892 120.844 128.337L117.452 130.984C116.006 132.112 113.977 132.112 112.531 130.984L109.139 128.337C108.568 127.892 107.887 127.609 107.168 127.521L102.898 126.994C101.077 126.769 99.6429 125.335 99.4182 123.514L98.8913 119.244C98.8026 118.525 98.5204 117.844 98.0749 117.273L95.4282 113.881C94.2996 112.435 94.2996 110.406 95.4282 108.96L98.0749 105.568C98.5204 104.997 98.8026 104.316 98.8913 103.597L99.4182 99.3272C99.6429 97.5063 101.077 96.0718 102.898 95.8471L107.168 95.3202C107.887 95.2316 108.568 94.9494 109.139 94.5039L112.531 91.8572Z" fill="url(#paint5_linear_39_592)"/>
<path d="M171.039 91.8572C172.486 90.7285 174.514 90.7285 175.961 91.8572L179.353 94.5039C179.924 94.9494 180.605 95.2316 181.324 95.3202L185.593 95.8471C187.414 96.0718 188.849 97.5063 189.073 99.3272L189.6 103.597C189.689 104.316 189.971 104.997 190.417 105.568L193.063 108.96C194.192 110.406 194.192 112.435 193.063 113.881L190.417 117.273C189.971 117.844 189.689 118.525 189.6 119.244L189.073 123.514C188.849 125.335 187.414 126.769 185.593 126.994L181.324 127.521C180.605 127.609 179.924 127.892 179.353 128.337L175.961 130.984C174.514 132.112 172.486 132.112 171.039 130.984L167.648 128.337C167.077 127.892 166.395 127.609 165.677 127.521L161.407 126.994C159.586 126.769 158.151 125.335 157.927 123.514L157.4 119.244C157.311 118.525 157.029 117.844 156.583 117.273L153.937 113.881C152.808 112.435 152.808 110.406 153.937 108.96L156.583 105.568C157.029 104.997 157.311 104.316 157.4 103.597L157.927 99.3272C158.151 97.5063 159.586 96.0718 161.407 95.8471L165.677 95.3202C166.395 95.2316 167.077 94.9494 167.648 94.5039L171.039 91.8572Z" fill="url(#paint6_linear_39_592)"/>
<path d="M229.547 91.8572C230.993 90.7285 233.022 90.7285 234.468 91.8572L237.86 94.5039C238.431 94.9494 239.112 95.2316 239.831 95.3202L244.101 95.8471C245.922 96.0718 247.356 97.5063 247.581 99.3272L248.108 103.597C248.196 104.316 248.478 104.997 248.924 105.568L251.571 108.96C252.699 110.406 252.699 112.435 251.571 113.881L248.924 117.273C248.478 117.844 248.196 118.525 248.108 119.244L247.581 123.514C247.356 125.335 245.922 126.769 244.101 126.994L239.831 127.521C239.112 127.609 238.431 127.892 237.86 128.337L234.468 130.984C233.022 132.112 230.993 132.112 229.547 130.984L226.155 128.337C225.584 127.892 224.903 127.609 224.184 127.521L219.914 126.994C218.093 126.769 216.659 125.335 216.434 123.514L215.907 119.244C215.818 118.525 215.536 117.844 215.091 117.273L212.444 113.881C211.315 112.435 211.315 110.406 212.444 108.96L215.091 105.568C215.536 104.997 215.818 104.316 215.907 103.597L216.434 99.3272C216.659 97.5063 218.093 96.0718 219.914 95.8471L224.184 95.3202C224.903 95.2316 225.584 94.9494 226.155 94.5039L229.547 91.8572Z" fill="url(#paint7_linear_39_592)"/>
<path d="M288.056 91.8572C289.502 90.7285 291.531 90.7285 292.977 91.8572L296.369 94.5039C296.94 94.9494 297.621 95.2316 298.34 95.3202L302.61 95.8471C304.431 96.0718 305.865 97.5063 306.09 99.3272L306.617 103.597C306.705 104.316 306.988 104.997 307.433 105.568L310.08 108.96C311.208 110.406 311.208 112.435 310.08 113.881L307.433 117.273C306.988 117.844 306.705 118.525 306.617 119.244L306.09 123.514C305.865 125.335 304.431 126.769 302.61 126.994L298.34 127.521C297.621 127.609 296.94 127.892 296.369 128.337L292.977 130.984C291.531 132.112 289.502 132.112 288.056 130.984L284.664 128.337C284.093 127.892 283.412 127.609 282.693 127.521L278.423 126.994C276.602 126.769 275.168 125.335 274.943 123.514L274.416 119.244C274.328 118.525 274.045 117.844 273.6 117.273L270.953 113.881C269.824 112.435 269.824 110.406 270.953 108.96L273.6 105.568C274.045 104.997 274.328 104.316 274.416 103.597L274.943 99.3272C275.168 97.5063 276.602 96.0718 278.423 95.8471L282.693 95.3202C283.412 95.2316 284.093 94.9494 284.664 94.5039L288.056 91.8572Z" fill="url(#paint8_linear_39_592)"/>
<path d="M55.0227 37.9202C56.4691 36.7915 58.4979 36.7915 59.9442 37.9202L63.3361 40.5669C63.907 41.0124 64.5882 41.2945 65.3069 41.3832L69.5768 41.9101C71.3976 42.1348 72.8322 43.5693 73.0569 45.3901L73.5837 49.66C73.6724 50.3788 73.9546 51.06 74.4001 51.6309L77.0468 55.0227C78.1754 56.4691 78.1754 58.4979 77.0468 59.9442L74.4001 63.3361C73.9546 63.907 73.6724 64.5882 73.5837 65.3069L73.0569 69.5768C72.8322 71.3976 71.3976 72.8322 69.5768 73.0569L65.3069 73.5837C64.5882 73.6724 63.907 73.9546 63.3361 74.4001L59.9442 77.0468C58.4979 78.1754 56.4691 78.1754 55.0227 77.0468L51.6309 74.4001C51.06 73.9546 50.3788 73.6724 49.66 73.5837L45.3901 73.0569C43.5693 72.8322 42.1348 71.3976 41.9101 69.5768L41.3832 65.3069C41.2945 64.5882 41.0124 63.907 40.5669 63.3361L37.9202 59.9442C36.7915 58.4979 36.7915 56.4691 37.9202 55.0227L40.5669 51.6309C41.0124 51.06 41.2945 50.3788 41.3832 49.66L41.9101 45.3901C42.1348 43.5693 43.5693 42.1348 45.3901 41.9101L49.66 41.3832C50.3788 41.2945 51.06 41.0124 51.6309 40.5669L55.0227 37.9202Z" fill="url(#paint9_linear_39_592)"/>
<path d="M51.0002 58.8L54.7995 62L63.0002 54" stroke="white" stroke-width="2" stroke-linecap="round" stroke-linejoin="round"/>
<path d="M51.0002 111.8L54.7995 115L63.0002 107" stroke="white" stroke-width="2" stroke-linecap="round" stroke-linejoin="round"/>
<path d="M55.0227 145.92C56.4691 144.792 58.4979 144.792 59.9442 145.92L63.3361 148.567C63.907 149.012 64.5882 149.295 65.3069 149.383L69.5768 149.91C71.3976 150.135 72.8322 151.569 73.0569 153.39L73.5837 157.66C73.6724 158.379 73.9546 159.06 74.4001 159.631L77.0468 163.023C78.1754 164.469 78.1754 166.498 77.0468 167.944L74.4001 171.336C73.9546 171.907 73.6724 172.588 73.5837 173.307L73.0569 177.577C72.8322 179.398 71.3976 180.832 69.5768 181.057L65.3069 181.584C64.5882 181.672 63.907 181.955 63.3361 182.4L59.9442 185.047C58.4979 186.175 56.4691 186.175 55.0227 185.047L51.6309 182.4C51.06 181.955 50.3788 181.672 49.66 181.584L45.3901 181.057C43.5693 180.832 42.1348 179.398 41.9101 177.577L41.3832 173.307C41.2945 172.588 41.0124 171.907 40.5669 171.336L37.9202 167.944C36.7915 166.498 36.7915 164.469 37.9202 163.023L40.5669 159.631C41.0124 159.06 41.2945 158.379 41.3832 157.66L41.9101 153.39C42.1348 151.569 43.5693 150.135 45.3901 149.91L49.66 149.383C50.3788 149.295 51.06 149.012 51.6309 148.567L55.0227 145.92Z" fill="url(#paint10_linear_39_592)"/>
<path d="M51.0002 165.863L54.7995 169.063L63.0002 161.063" stroke="white" stroke-width="2" stroke-linecap="round" stroke-linejoin="round"/>
<path d="M109 58.8L112.799 62L121 54" stroke="white" stroke-width="2" stroke-linecap="round" stroke-linejoin="round"/>
<path d="M109 111.8L112.799 115L121 107" stroke="white" stroke-width="2" stroke-linecap="round" stroke-linejoin="round"/>
<g clip-path="url(#clip0_39_592)">
<path d="M168 58.8L171.799 62L180 54" stroke="white" stroke-width="2" stroke-linecap="round" stroke-linejoin="round"/>
</g>
<g clip-path="url(#clip1_39_592)">
<path d="M168 111.8L171.799 115L180 107" stroke="white" stroke-width="2" stroke-linecap="round" stroke-linejoin="round"/>
</g>
<g clip-path="url(#clip2_39_592)">
<path d="M226 58.8L229.799 62L238 54" stroke="white" stroke-width="2" stroke-linecap="round" stroke-linejoin="round"/>
</g>
<g clip-path="url(#clip3_39_592)">
<path d="M226 111.8L229.799 115L238 107" stroke="white" stroke-width="2" stroke-linecap="round" stroke-linejoin="round"/>
</g>
<g clip-path="url(#clip4_39_592)">
<path d="M285 58.8L288.799 62L297 54" stroke="white" stroke-width="2" stroke-linecap="round" stroke-linejoin="round"/>
</g>
<g clip-path="url(#clip5_39_592)">
<g clip-path="url(#clip6_39_592)">
<path d="M285 111.8L288.799 115L297 107" stroke="white" stroke-width="2" stroke-linecap="round" stroke-linejoin="round"/>
</g>
</g>
<path d="M113.054 145.34C114.48 144.186 116.508 144.151 117.974 145.254L121.412 147.841C121.991 148.276 122.677 148.546 123.397 148.622L127.675 149.074C129.5 149.267 130.959 150.676 131.216 152.492L131.818 156.752C131.919 157.47 132.213 158.146 132.669 158.709L135.374 162.054C136.528 163.48 136.564 165.508 135.461 166.974L132.874 170.412C132.439 170.991 132.169 171.677 132.093 172.397L131.641 176.675C131.448 178.5 130.039 179.959 128.222 180.216L123.962 180.818C123.245 180.919 122.569 181.213 122.006 181.669L118.661 184.374C117.235 185.528 115.206 185.564 113.741 184.461L110.303 181.874C109.724 181.439 109.038 181.169 108.318 181.093L104.039 180.641C102.215 180.448 100.755 179.039 100.499 177.222L99.897 172.962C99.7957 172.245 99.5016 171.569 99.0461 171.006L96.3403 167.661C95.1864 166.235 95.1508 164.206 96.2539 162.74L98.8406 159.303C99.276 158.724 99.5462 158.038 99.6222 157.318L100.074 153.039C100.267 151.215 101.676 149.755 103.492 149.499L107.752 148.897C108.47 148.796 109.146 148.502 109.709 148.046L113.054 145.34Z" fill="url(#paint11_linear_39_592)"/>
<path d="M109.382 165.351L113.237 168.483L121.296 160.341" stroke="white" stroke-width="2" stroke-linecap="round" stroke-linejoin="round"/>
<path d="M172.397 145.294C173.843 144.165 175.872 144.165 177.318 145.294L180.71 147.941C181.281 148.386 181.962 148.668 182.681 148.757L186.951 149.284C188.772 149.509 190.206 150.943 190.431 152.764L190.958 157.034C191.046 157.753 191.328 158.434 191.774 159.005L194.421 162.397C195.549 163.843 195.549 165.872 194.421 167.318L191.774 170.71C191.328 171.281 191.046 171.962 190.958 172.681L190.431 176.951C190.206 178.772 188.772 180.206 186.951 180.431L182.681 180.958C181.962 181.046 181.281 181.328 180.71 181.774L177.318 184.421C175.872 185.549 173.843 185.549 172.397 184.421L169.005 181.774C168.434 181.328 167.753 181.046 167.034 180.958L162.764 180.431C160.943 180.206 159.509 178.772 159.284 176.951L158.757 172.681C158.668 171.962 158.386 171.281 157.941 170.71L155.294 167.318C154.165 165.872 154.165 163.843 155.294 162.397L157.941 159.005C158.386 158.434 158.668 157.753 158.757 157.034L159.284 152.764C159.509 150.943 160.943 149.509 162.764 149.284L167.034 148.757C167.753 148.668 168.434 148.386 169.005 147.941L172.397 145.294Z" fill="url(#paint12_linear_39_592)"/>
<path d="M168.374 165.237L172.173 168.437L180.374 160.437" stroke="white" stroke-width="2" stroke-linecap="round" stroke-linejoin="round"/>
<path d="M230.397 145.294C231.843 144.165 233.872 144.165 235.318 145.294L238.71 147.941C239.281 148.386 239.962 148.668 240.681 148.757L244.951 149.284C246.772 149.509 248.206 150.943 248.431 152.764L248.958 157.034C249.046 157.753 249.328 158.434 249.774 159.005L252.421 162.397C253.549 163.843 253.549 165.872 252.421 167.318L249.774 170.71C249.328 171.281 249.046 171.962 248.958 172.681L248.431 176.951C248.206 178.772 246.772 180.206 244.951 180.431L240.681 180.958C239.962 181.046 239.281 181.328 238.71 181.774L235.318 184.421C233.872 185.549 231.843 185.549 230.397 184.421L227.005 181.774C226.434 181.328 225.753 181.046 225.034 180.958L220.764 180.431C218.943 180.206 217.509 178.772 217.284 176.951L216.757 172.681C216.668 171.962 216.386 171.281 215.941 170.71L213.294 167.318C212.165 165.872 212.165 163.843 213.294 162.397L215.941 159.005C216.386 158.434 216.668 157.753 216.757 157.034L217.284 152.764C217.509 150.943 218.943 149.509 220.764 149.284L225.034 148.757C225.753 148.668 226.434 148.386 227.005 147.941L230.397 145.294Z" fill="url(#paint13_linear_39_592)"/>
<path d="M226.374 165.237L230.173 168.437L238.374 160.437" stroke="white" stroke-width="2" stroke-linecap="round" stroke-linejoin="round"/>
<path d="M288.023 146.92C289.469 145.792 291.498 145.792 292.944 146.92L296.336 149.567C296.907 150.012 297.588 150.295 298.307 150.383L302.577 150.91C304.398 151.135 305.832 152.569 306.057 154.39L306.584 158.66C306.672 159.379 306.955 160.06 307.4 160.631L310.047 164.023C311.175 165.469 311.175 167.498 310.047 168.944L307.4 172.336C306.955 172.907 306.672 173.588 306.584 174.307L306.057 178.577C305.832 180.398 304.398 181.832 302.577 182.057L298.307 182.584C297.588 182.672 296.907 182.955 296.336 183.4L292.944 186.047C291.498 187.175 289.469 187.175 288.023 186.047L284.631 183.4C284.06 182.955 283.379 182.672 282.66 182.584L278.39 182.057C276.569 181.832 275.135 180.398 274.91 178.577L274.383 174.307C274.295 173.588 274.012 172.907 273.567 172.336L270.92 168.944C269.792 167.498 269.792 165.469 270.92 164.023L273.567 160.631C274.012 160.06 274.295 159.379 274.383 158.66L274.91 154.39C275.135 152.569 276.569 151.135 278.39 150.91L282.66 150.383C283.379 150.295 284.06 150.012 284.631 149.567L288.023 146.92Z" fill="url(#paint14_linear_39_592)"/>
<path d="M285 165.8L288.799 169L297 161" stroke="white" stroke-width="2" stroke-linecap="round" stroke-linejoin="round"/>
<defs>
<filter id="filter0_d_39_592" x="0" y="0" width="347" height="229" filterUnits="userSpaceOnUse" color-interpolation-filters="sRGB">
<feFlood flood-opacity="0" result="BackgroundImageFix"/>
<feColorMatrix in="SourceAlpha" type="matrix" values="0 0 0 0 0 0 0 0 0 0 0 0 0 0 0 0 0 0 127 0" result="hardAlpha"/>
<feOffset dy="4"/>
<feGaussianBlur stdDeviation="7.5"/>
<feComposite in2="hardAlpha" operator="out"/>
<feColorMatrix type="matrix" values="0 0 0 0 0 0 0 0 0 0 0 0 0 0 0 0 0 0 0.1 0"/>
<feBlend mode="normal" in2="BackgroundImageFix" result="effect1_dropShadow_39_592"/>
<feBlend mode="normal" in="SourceGraphic" in2="effect1_dropShadow_39_592" result="shape"/>
</filter>
<linearGradient id="paint0_linear_39_592" x1="112.508" y1="102" x2="167.008" y2="70.5" gradientUnits="userSpaceOnUse">
<stop stop-color="#FAA677"/>
<stop offset="1" stop-color="#FAA677" stop-opacity="0.47"/>
</linearGradient>
<linearGradient id="paint1_linear_39_592" x1="171.016" y1="102" x2="225.516" y2="70.5001" gradientUnits="userSpaceOnUse">
<stop stop-color="#FAA677"/>
<stop offset="1" stop-color="#FAA677" stop-opacity="0.47"/>
</linearGradient>
<linearGradient id="paint2_linear_39_592" x1="229.525" y1="102" x2="284.025" y2="70.5" gradientUnits="userSpaceOnUse">
<stop stop-color="#FAA677"/>
<stop offset="1" stop-color="#FAA677" stop-opacity="0.47"/>
</linearGradient>
<linearGradient id="paint3_linear_39_592" x1="288.033" y1="102" x2="342.533" y2="70.5001" gradientUnits="userSpaceOnUse">
<stop stop-color="#FAA677"/>
<stop offset="1" stop-color="#FAA677" stop-opacity="0.47"/>
</linearGradient>
<linearGradient id="paint4_linear_39_592" x1="53.9997" y1="155.937" x2="108.5" y2="124.437" gradientUnits="userSpaceOnUse">
<stop stop-color="#FAA677"/>
<stop offset="1" stop-color="#FAA677" stop-opacity="0.47"/>
</linearGradient>
<linearGradient id="paint5_linear_39_592" x1="112.508" y1="155.937" x2="167.008" y2="124.437" gradientUnits="userSpaceOnUse">
<stop stop-color="#FAA677"/>
<stop offset="1" stop-color="#FAA677" stop-opacity="0.47"/>
</linearGradient>
<linearGradient id="paint6_linear_39_592" x1="171.017" y1="155.937" x2="225.517" y2="124.437" gradientUnits="userSpaceOnUse">
<stop stop-color="#FAA677"/>
<stop offset="1" stop-color="#FAA677" stop-opacity="0.47"/>
</linearGradient>
<linearGradient id="paint7_linear_39_592" x1="229.524" y1="155.937" x2="284.024" y2="124.437" gradientUnits="userSpaceOnUse">
<stop stop-color="#FAA677"/>
<stop offset="1" stop-color="#FAA677" stop-opacity="0.47"/>
</linearGradient>
<linearGradient id="paint8_linear_39_592" x1="288.033" y1="155.937" x2="342.533" y2="124.437" gradientUnits="userSpaceOnUse">
<stop stop-color="#FAA677"/>
<stop offset="1" stop-color="#FAA677" stop-opacity="0.47"/>
</linearGradient>
<linearGradient id="paint9_linear_39_592" x1="55" y1="102" x2="109.5" y2="70.5" gradientUnits="userSpaceOnUse">
<stop stop-color="#FAA677"/>
<stop offset="1" stop-color="#FAA677" stop-opacity="0.47"/>
</linearGradient>
<linearGradient id="paint10_linear_39_592" x1="55" y1="210" x2="109.5" y2="178.5" gradientUnits="userSpaceOnUse">
<stop stop-color="#FAA677"/>
<stop offset="1" stop-color="#FAA677" stop-opacity="0.47"/>
</linearGradient>
<linearGradient id="paint11_linear_39_592" x1="114.156" y1="209.411" x2="168.094" y2="176.959" gradientUnits="userSpaceOnUse">
<stop stop-color="#FAA677"/>
<stop offset="1" stop-color="#FAA677" stop-opacity="0.47"/>
</linearGradient>
<linearGradient id="paint12_linear_39_592" x1="172.374" y1="209.374" x2="226.874" y2="177.874" gradientUnits="userSpaceOnUse">
<stop stop-color="#FAA677"/>
<stop offset="1" stop-color="#FAA677" stop-opacity="0.47"/>
</linearGradient>
<linearGradient id="paint13_linear_39_592" x1="230.374" y1="209.374" x2="284.874" y2="177.874" gradientUnits="userSpaceOnUse">
<stop stop-color="#FAA677"/>
<stop offset="1" stop-color="#FAA677" stop-opacity="0.47"/>
</linearGradient>
<linearGradient id="paint14_linear_39_592" x1="288" y1="211" x2="342.5" y2="179.5" gradientUnits="userSpaceOnUse">
<stop stop-color="#FAA677"/>
<stop offset="1" stop-color="#FAA677" stop-opacity="0.47"/>
</linearGradient>
<clipPath id="clip0_39_592">
<rect width="22" height="22" fill="white" transform="translate(163 48)"/>
</clipPath>
<clipPath id="clip1_39_592">
<rect width="22" height="22" fill="white" transform="translate(163 101)"/>
</clipPath>
<clipPath id="clip2_39_592">
<rect width="22" height="22" fill="white" transform="translate(221 48)"/>
</clipPath>
<clipPath id="clip3_39_592">
<rect width="22" height="22" fill="white" transform="translate(221 101)"/>
</clipPath>
<clipPath id="clip4_39_592">
<rect width="22" height="22" fill="white" transform="translate(280 48)"/>
</clipPath>
<clipPath id="clip5_39_592">
<rect width="22" height="22" fill="white" transform="translate(280 101)"/>
</clipPath>
<clipPath id="clip6_39_592">
<rect width="22" height="22" fill="white" transform="translate(280 101)"/>
</clipPath>
</defs>
</svg>
