<svg width="43" height="44" viewBox="0 0 43 44" fill="none" xmlns="http://www.w3.org/2000/svg">
<path d="M19.0026 1.9615C20.4567 0.811806 22.5102 0.811806 23.9643 1.9615L27.3324 4.62443C27.9055 5.07762 28.5919 5.36514 29.317 5.4558L33.5775 5.9885C35.3979 6.2161 36.8301 7.6529 37.0519 9.47404L37.5867 13.8655C37.6735 14.578 37.9503 15.254 38.3883 15.8226L41.0874 19.3275C42.1952 20.766 42.1952 22.7702 41.0874 24.2087L38.3883 27.7136C37.9503 28.2822 37.6735 28.9582 37.5867 29.6706L37.0519 34.0621C36.8301 35.8833 35.3979 37.3201 33.5775 37.5477L29.317 38.0804C28.5919 38.171 27.9055 38.4586 27.3324 38.9118L23.9643 41.5747C22.5102 42.7244 20.4567 42.7244 19.0026 41.5747L15.6346 38.9118C15.0614 38.4586 14.3751 38.171 13.65 38.0804L9.38946 37.5477C7.56904 37.3201 6.13683 35.8833 5.91505 34.0621L5.38024 29.6706C5.29348 28.9582 5.01663 28.2822 4.57872 27.7136L1.87954 24.2087C0.771733 22.7702 0.771733 20.766 1.87954 19.3275L4.57872 15.8226C5.01663 15.254 5.29348 14.578 5.38024 13.8655L5.91505 9.47404C6.13683 7.6529 7.56904 6.2161 9.38945 5.9885L13.65 5.4558C14.3751 5.36514 15.0614 5.07762 15.6346 4.62443L19.0026 1.9615Z" fill="url(#paint0_linear_39_525)"/>
<path d="M15 22.8636L18.7993 26.106L27 18" stroke="white" stroke-width="2" stroke-linecap="round" stroke-linejoin="round"/>
<defs>
<linearGradient id="paint0_linear_39_525" x1="19" y1="66.8743" x2="73.8568" y2="35.5826" gradientUnits="userSpaceOnUse">
<stop stop-color="#FAA677"/>
<stop offset="1" stop-color="#FAA677" stop-opacity="0.47"/>
</linearGradient>
</defs>
</svg>
